<mxfile host="app.diagrams.net" agent="Mozilla/5.0 (Windows NT 10.0; Win64; x64) AppleWebKit/537.36 (KHTML, like Gecko) Chrome/116.0.0.0 Safari/537.36" version="24.7.5">
  <diagram name="Page-1" id="c4acf3e9-155e-7222-9cf6-157b1a14988f">
    <mxGraphModel dx="1387" dy="2165" grid="0" gridSize="10" guides="1" tooltips="1" connect="1" arrows="1" fold="1" page="0" pageScale="1" pageWidth="850" pageHeight="1100" background="none" math="0" shadow="0">
      <root>
        <mxCell id="0" />
        <mxCell id="1" parent="0" />
        <mxCell id="RKI_oxmCUPOYZ7H7hOv1-26" value="test.proto" style="swimlane;fontStyle=1;align=center;verticalAlign=top;childLayout=stackLayout;horizontal=1;startSize=34;horizontalStack=0;resizeParent=1;resizeParentMax=0;resizeLast=0;collapsible=1;marginBottom=0;whiteSpace=wrap;html=1;" vertex="1" parent="1">
          <mxGeometry x="-128" y="-717" width="191" height="348" as="geometry" />
        </mxCell>
        <mxCell id="RKI_oxmCUPOYZ7H7hOv1-51" value="&lt;div style=&quot;color: #abb2bf;background-color: #282c34;font-family: Consolas, &#39;Courier New&#39;, monospace;font-weight: normal;font-size: 16px;line-height: 22px;white-space: pre;&quot;&gt;&lt;div&gt;&lt;span style=&quot;color: #c678dd;&quot;&gt;message&lt;/span&gt;&lt;span style=&quot;color: #abb2bf;&quot;&gt; &lt;/span&gt;&lt;span style=&quot;color: #e5c07b;&quot;&gt;LoginRequest&lt;/span&gt;&lt;/div&gt;&lt;div&gt;&lt;span style=&quot;color: #abb2bf;&quot;&gt;{&lt;/span&gt;&lt;/div&gt;&lt;div&gt;&lt;span style=&quot;color: #abb2bf;&quot;&gt;&amp;nbsp; &amp;nbsp; &lt;/span&gt;&lt;span style=&quot;color: #c678dd;&quot;&gt;bytes&lt;/span&gt;&lt;span style=&quot;color: #abb2bf;&quot;&gt; &lt;/span&gt;&lt;span style=&quot;color: #e06c75;&quot;&gt;name&lt;/span&gt;&lt;span style=&quot;color: #abb2bf;&quot;&gt; = &lt;/span&gt;&lt;span style=&quot;color: #d19a66;&quot;&gt;1&lt;/span&gt;&lt;span style=&quot;color: #abb2bf;&quot;&gt;;&lt;/span&gt;&lt;/div&gt;&lt;div&gt;&lt;span style=&quot;color: #abb2bf;&quot;&gt;&amp;nbsp; &amp;nbsp; &lt;/span&gt;&lt;span style=&quot;color: #c678dd;&quot;&gt;bytes&lt;/span&gt;&lt;span style=&quot;color: #abb2bf;&quot;&gt; &lt;/span&gt;&lt;span style=&quot;color: #e06c75;&quot;&gt;pwd&lt;/span&gt;&lt;span style=&quot;color: #abb2bf;&quot;&gt; = &lt;/span&gt;&lt;span style=&quot;color: #d19a66;&quot;&gt;2&lt;/span&gt;&lt;span style=&quot;color: #abb2bf;&quot;&gt;;&lt;/span&gt;&lt;/div&gt;&lt;div&gt;&lt;span style=&quot;color: #abb2bf;&quot;&gt;}&lt;/span&gt;&lt;/div&gt;&lt;/div&gt;" style="text;whiteSpace=wrap;html=1;" vertex="1" parent="RKI_oxmCUPOYZ7H7hOv1-26">
          <mxGeometry y="34" width="191" height="132" as="geometry" />
        </mxCell>
        <mxCell id="RKI_oxmCUPOYZ7H7hOv1-64" value="" style="html=1;whiteSpace=wrap;" vertex="1" parent="RKI_oxmCUPOYZ7H7hOv1-26">
          <mxGeometry y="166" width="191" height="50" as="geometry" />
        </mxCell>
        <mxCell id="RKI_oxmCUPOYZ7H7hOv1-65" value="&lt;div style=&quot;color: #abb2bf;background-color: #282c34;font-family: Consolas, &#39;Courier New&#39;, monospace;font-weight: normal;font-size: 16px;line-height: 22px;white-space: pre;&quot;&gt;&lt;div&gt;&lt;span style=&quot;color: #c678dd;&quot;&gt;service&lt;/span&gt;&lt;span style=&quot;color: #abb2bf;&quot;&gt; &lt;/span&gt;&lt;span style=&quot;color: #e5c07b;&quot;&gt;UserServiceRpc&lt;/span&gt;&lt;/div&gt;&lt;div&gt;&lt;span style=&quot;color: #abb2bf;&quot;&gt;{&lt;/span&gt;&lt;/div&gt;&lt;div&gt;&lt;span style=&quot;color: #abb2bf;&quot;&gt;&amp;nbsp; &amp;nbsp; &lt;/span&gt;&lt;span style=&quot;color: #c678dd;&quot;&gt;rpc&lt;/span&gt;&lt;span style=&quot;color: #abb2bf;&quot;&gt; &lt;/span&gt;&lt;span style=&quot;color: #61afef;&quot;&gt;Login&lt;/span&gt;&lt;span style=&quot;color: #abb2bf;&quot;&gt;(&lt;/span&gt;&lt;span style=&quot;color: #e5c07b;&quot;&gt;LoginRequest&lt;/span&gt;&lt;span style=&quot;color: #abb2bf;&quot;&gt;) &lt;/span&gt;&lt;span style=&quot;color: #c678dd;&quot;&gt;returns&lt;/span&gt;&lt;span style=&quot;color: #abb2bf;&quot;&gt;(&lt;/span&gt;&lt;span style=&quot;color: #e5c07b;&quot;&gt;LoginResponse&lt;/span&gt;&lt;span style=&quot;color: #abb2bf;&quot;&gt;);&lt;/span&gt;&lt;/div&gt;&lt;div&gt;&lt;span style=&quot;color: #abb2bf;&quot;&gt;&amp;nbsp; &amp;nbsp; &lt;/span&gt;&lt;span style=&quot;color: #c678dd;&quot;&gt;rpc&lt;/span&gt;&lt;span style=&quot;color: #abb2bf;&quot;&gt; &lt;/span&gt;&lt;span style=&quot;color: #61afef;&quot;&gt;Register&lt;/span&gt;&lt;span style=&quot;color: #abb2bf;&quot;&gt;(&lt;/span&gt;&lt;span style=&quot;color: #e5c07b;&quot;&gt;RegisterRequest&lt;/span&gt;&lt;span style=&quot;color: #abb2bf;&quot;&gt;) &lt;/span&gt;&lt;span style=&quot;color: #c678dd;&quot;&gt;returns&lt;/span&gt;&lt;span style=&quot;color: #abb2bf;&quot;&gt;(&lt;/span&gt;&lt;span style=&quot;color: #e5c07b;&quot;&gt;RegisterResponse&lt;/span&gt;&lt;span style=&quot;color: #abb2bf;&quot;&gt;);&lt;/span&gt;&lt;/div&gt;&lt;div&gt;&lt;span style=&quot;color: #abb2bf;&quot;&gt;}&lt;/span&gt;&lt;/div&gt;&lt;/div&gt;" style="text;whiteSpace=wrap;html=1;" vertex="1" parent="RKI_oxmCUPOYZ7H7hOv1-26">
          <mxGeometry y="216" width="191" height="132" as="geometry" />
        </mxCell>
        <mxCell id="RKI_oxmCUPOYZ7H7hOv1-30" value="业务角度" style="html=1;whiteSpace=wrap;" vertex="1" parent="1">
          <mxGeometry x="-170" y="-128" width="110" height="50" as="geometry" />
        </mxCell>
        <mxCell id="RKI_oxmCUPOYZ7H7hOv1-46" value="&lt;p style=&quot;margin:0px;margin-top:4px;text-align:center;&quot;&gt;&lt;b&gt;Class&lt;/b&gt;&lt;/p&gt;&lt;hr size=&quot;1&quot; style=&quot;border-style:solid;&quot;/&gt;&lt;p style=&quot;margin:0px;margin-left:4px;&quot;&gt;+ field: Type&lt;/p&gt;&lt;hr size=&quot;1&quot; style=&quot;border-style:solid;&quot;/&gt;&lt;p style=&quot;margin:0px;margin-left:4px;&quot;&gt;+ method(): Type&lt;/p&gt;" style="verticalAlign=top;align=left;overflow=fill;html=1;whiteSpace=wrap;" vertex="1" parent="1">
          <mxGeometry x="1020" y="-1302" width="160" height="90" as="geometry" />
        </mxCell>
        <mxCell id="RKI_oxmCUPOYZ7H7hOv1-47" value="示例 序列化和反序列化" style="swimlane;fontStyle=1;align=center;verticalAlign=top;childLayout=stackLayout;horizontal=1;startSize=34;horizontalStack=0;resizeParent=1;resizeParentMax=0;resizeLast=0;collapsible=1;marginBottom=0;whiteSpace=wrap;html=1;" vertex="1" parent="1">
          <mxGeometry x="413" y="-798" width="182" height="287" as="geometry" />
        </mxCell>
        <mxCell id="RKI_oxmCUPOYZ7H7hOv1-48" value="#include &quot;test.pb.h&quot;" style="html=1;whiteSpace=wrap;" vertex="1" parent="RKI_oxmCUPOYZ7H7hOv1-47">
          <mxGeometry y="34" width="182" height="50" as="geometry" />
        </mxCell>
        <mxCell id="RKI_oxmCUPOYZ7H7hOv1-60" value="序列化数据&lt;div&gt;LoginRequest req；&lt;/div&gt;&lt;div&gt;然后填数据&lt;/div&gt;&lt;div&gt;然后req.SerializeToString(&amp;amp;send_str)&lt;/div&gt;&lt;div&gt;将数据转为字符流&lt;/div&gt;" style="html=1;whiteSpace=wrap;" vertex="1" parent="RKI_oxmCUPOYZ7H7hOv1-47">
          <mxGeometry y="84" width="182" height="107" as="geometry" />
        </mxCell>
        <mxCell id="RKI_oxmCUPOYZ7H7hOv1-61" value="反序列化&lt;div&gt;req.ParseFromString(&lt;span style=&quot;background-color: initial;&quot;&gt;&amp;amp;send_str&lt;/span&gt;&lt;span style=&quot;background-color: initial;&quot;&gt;)&lt;/span&gt;&lt;/div&gt;" style="html=1;whiteSpace=wrap;" vertex="1" parent="RKI_oxmCUPOYZ7H7hOv1-47">
          <mxGeometry y="191" width="182" height="96" as="geometry" />
        </mxCell>
        <mxCell id="RKI_oxmCUPOYZ7H7hOv1-52" value="" style="endArrow=classic;html=1;rounded=0;" edge="1" parent="1">
          <mxGeometry width="50" height="50" relative="1" as="geometry">
            <mxPoint x="63" y="-693" as="sourcePoint" />
            <mxPoint x="229" y="-693" as="targetPoint" />
          </mxGeometry>
        </mxCell>
        <mxCell id="RKI_oxmCUPOYZ7H7hOv1-54" value="proto test.proto --cpp_out=./" style="text;html=1;align=center;verticalAlign=middle;resizable=0;points=[];autosize=1;strokeColor=none;fillColor=none;" vertex="1" parent="1">
          <mxGeometry x="74" y="-721" width="166" height="26" as="geometry" />
        </mxCell>
        <mxCell id="RKI_oxmCUPOYZ7H7hOv1-55" value="test.pb.cc" style="html=1;whiteSpace=wrap;" vertex="1" parent="1">
          <mxGeometry x="259" y="-745" width="110" height="50" as="geometry" />
        </mxCell>
        <mxCell id="RKI_oxmCUPOYZ7H7hOv1-56" value="test.pb.h" style="html=1;whiteSpace=wrap;" vertex="1" parent="1">
          <mxGeometry x="259" y="-663" width="110" height="50" as="geometry" />
        </mxCell>
        <mxCell id="RKI_oxmCUPOYZ7H7hOv1-58" value="会生成&lt;span style=&quot;text-wrap: wrap;&quot;&gt;test.pb.h文件，然后有一个类叫做LoginRequest，有两个成员变量叫做name和pwd&lt;/span&gt;&lt;div&gt;&lt;span style=&quot;text-wrap: wrap;&quot;&gt;&lt;br&gt;&lt;/span&gt;&lt;/div&gt;" style="text;html=1;align=center;verticalAlign=middle;resizable=0;points=[];autosize=1;strokeColor=none;fillColor=none;" vertex="1" parent="1">
          <mxGeometry x="-286" y="-786" width="490" height="41" as="geometry" />
        </mxCell>
        <mxCell id="RKI_oxmCUPOYZ7H7hOv1-63" value="req.set_name(&quot;aaa&quot;)&lt;div&gt;req.set_pwd(&quot;aaa&quot;)&lt;/div&gt;" style="html=1;whiteSpace=wrap;" vertex="1" parent="1">
          <mxGeometry x="595" y="-686" width="133" height="50" as="geometry" />
        </mxCell>
        <mxCell id="RKI_oxmCUPOYZ7H7hOv1-66" value="都是生成了类" style="text;html=1;align=center;verticalAlign=middle;resizable=0;points=[];autosize=1;strokeColor=none;fillColor=none;" vertex="1" parent="1">
          <mxGeometry x="91" y="-685" width="90" height="26" as="geometry" />
        </mxCell>
        <mxCell id="RKI_oxmCUPOYZ7H7hOv1-67" value="" style="endArrow=classic;html=1;rounded=0;" edge="1" parent="1">
          <mxGeometry width="50" height="50" relative="1" as="geometry">
            <mxPoint x="418" y="-406" as="sourcePoint" />
            <mxPoint x="584" y="-406" as="targetPoint" />
          </mxGeometry>
        </mxCell>
        <mxCell id="RKI_oxmCUPOYZ7H7hOv1-68" value="proto test.proto --cpp_out=./" style="text;html=1;align=center;verticalAlign=middle;resizable=0;points=[];autosize=1;strokeColor=none;fillColor=none;" vertex="1" parent="1">
          <mxGeometry x="429" y="-434" width="166" height="26" as="geometry" />
        </mxCell>
        <mxCell id="RKI_oxmCUPOYZ7H7hOv1-70" value="test.pb.cc" style="html=1;whiteSpace=wrap;" vertex="1" parent="1">
          <mxGeometry x="604" y="-482" width="110" height="50" as="geometry" />
        </mxCell>
        <mxCell id="RKI_oxmCUPOYZ7H7hOv1-71" value="test.pb.h" style="html=1;whiteSpace=wrap;" vertex="1" parent="1">
          <mxGeometry x="604" y="-400" width="110" height="50" as="geometry" />
        </mxCell>
        <mxCell id="RKI_oxmCUPOYZ7H7hOv1-96" value="&lt;span style=&quot;font-weight: 400;&quot;&gt;UserServiceRpc&lt;/span&gt;" style="swimlane;fontStyle=1;align=center;verticalAlign=top;childLayout=stackLayout;horizontal=1;startSize=26;horizontalStack=0;resizeParent=1;resizeParentMax=0;resizeLast=0;collapsible=1;marginBottom=0;whiteSpace=wrap;html=1;" vertex="1" parent="1">
          <mxGeometry x="801" y="-648" width="160" height="298" as="geometry" />
        </mxCell>
        <mxCell id="RKI_oxmCUPOYZ7H7hOv1-104" value="&lt;div style=&quot;color: #abb2bf;background-color: #282c34;font-family: Consolas, &#39;Courier New&#39;, monospace;font-weight: normal;font-size: 16px;line-height: 22px;white-space: pre;&quot;&gt;&lt;div&gt;&lt;span style=&quot;color: #c678dd;&quot;&gt;void&lt;/span&gt;&lt;span style=&quot;color: #abb2bf;&quot;&gt; &lt;/span&gt;&lt;span style=&quot;color: #61afef;&quot;&gt;Login&lt;/span&gt;&lt;span style=&quot;color: #abb2bf;&quot;&gt;(::&lt;/span&gt;&lt;span style=&quot;color: #d19a66;&quot;&gt;PROTOBUF_NAMESPACE_ID&lt;/span&gt;&lt;span style=&quot;color: #abb2bf;&quot;&gt;::&lt;/span&gt;&lt;span style=&quot;color: #e5c07b;&quot;&gt;RpcController&lt;/span&gt;&lt;span style=&quot;color: #c678dd;&quot;&gt;*&lt;/span&gt;&lt;span style=&quot;color: #abb2bf;&quot;&gt; &lt;/span&gt;&lt;span style=&quot;color: #e06c75;font-style: italic;&quot;&gt;controller&lt;/span&gt;&lt;span style=&quot;color: #abb2bf;&quot;&gt;,&lt;/span&gt;&lt;/div&gt;&lt;div&gt;&lt;span style=&quot;color: #abb2bf;&quot;&gt;&amp;nbsp; &amp;nbsp; &amp;nbsp; &amp;nbsp; &amp;nbsp; &amp;nbsp; &amp;nbsp; &amp;nbsp; &amp;nbsp; &amp;nbsp; &amp;nbsp; &amp;nbsp;&lt;/span&gt;&lt;span style=&quot;color: #c678dd;&quot;&gt;const&lt;/span&gt;&lt;span style=&quot;color: #abb2bf;&quot;&gt; ::&lt;/span&gt;&lt;span style=&quot;color: #e5c07b;&quot;&gt;fixbug&lt;/span&gt;&lt;span style=&quot;color: #abb2bf;&quot;&gt;::&lt;/span&gt;&lt;span style=&quot;color: #e5c07b;&quot;&gt;LoginRequest&lt;/span&gt;&lt;span style=&quot;color: #c678dd;&quot;&gt;*&lt;/span&gt;&lt;span style=&quot;color: #abb2bf;&quot;&gt; &lt;/span&gt;&lt;span style=&quot;color: #e06c75;font-style: italic;&quot;&gt;request&lt;/span&gt;&lt;span style=&quot;color: #abb2bf;&quot;&gt;,&lt;/span&gt;&lt;/div&gt;&lt;div&gt;&lt;span style=&quot;color: #abb2bf;&quot;&gt;&amp;nbsp; &amp;nbsp; &amp;nbsp; &amp;nbsp; &amp;nbsp; &amp;nbsp; &amp;nbsp; &amp;nbsp; &amp;nbsp; &amp;nbsp; &amp;nbsp; &amp;nbsp;::&lt;/span&gt;&lt;span style=&quot;color: #e5c07b;&quot;&gt;fixbug&lt;/span&gt;&lt;span style=&quot;color: #abb2bf;&quot;&gt;::&lt;/span&gt;&lt;span style=&quot;color: #e5c07b;&quot;&gt;LoginResponse&lt;/span&gt;&lt;span style=&quot;color: #c678dd;&quot;&gt;*&lt;/span&gt;&lt;span style=&quot;color: #abb2bf;&quot;&gt; &lt;/span&gt;&lt;span style=&quot;color: #e06c75;font-style: italic;&quot;&gt;response&lt;/span&gt;&lt;span style=&quot;color: #abb2bf;&quot;&gt;,&lt;/span&gt;&lt;/div&gt;&lt;div&gt;&lt;span style=&quot;color: #abb2bf;&quot;&gt;&amp;nbsp; &amp;nbsp; &amp;nbsp; &amp;nbsp; &amp;nbsp; &amp;nbsp; &amp;nbsp; &amp;nbsp; &amp;nbsp; &amp;nbsp; &amp;nbsp; &amp;nbsp;::&lt;/span&gt;&lt;span style=&quot;color: #e5c07b;&quot;&gt;google&lt;/span&gt;&lt;span style=&quot;color: #abb2bf;&quot;&gt;::&lt;/span&gt;&lt;span style=&quot;color: #e5c07b;&quot;&gt;protobuf&lt;/span&gt;&lt;span style=&quot;color: #abb2bf;&quot;&gt;::&lt;/span&gt;&lt;span style=&quot;color: #e5c07b;&quot;&gt;Closure&lt;/span&gt;&lt;span style=&quot;color: #c678dd;&quot;&gt;*&lt;/span&gt;&lt;span style=&quot;color: #abb2bf;&quot;&gt; &lt;/span&gt;&lt;span style=&quot;color: #e06c75;font-style: italic;&quot;&gt;done&lt;/span&gt;&lt;span style=&quot;color: #abb2bf;&quot;&gt;);&lt;/span&gt;&lt;/div&gt;&lt;/div&gt;" style="text;whiteSpace=wrap;html=1;" vertex="1" parent="RKI_oxmCUPOYZ7H7hOv1-96">
          <mxGeometry y="26" width="160" height="110" as="geometry" />
        </mxCell>
        <mxCell id="RKI_oxmCUPOYZ7H7hOv1-107" value="&lt;div style=&quot;color: #abb2bf;background-color: #282c34;font-family: Consolas, &#39;Courier New&#39;, monospace;font-weight: normal;font-size: 16px;line-height: 22px;white-space: pre;&quot;&gt;&lt;div&gt;&lt;span style=&quot;color: #abb2bf;&quot;&gt;&amp;nbsp;&lt;/span&gt;&lt;span style=&quot;color: #c678dd;&quot;&gt;virtual&lt;/span&gt;&lt;span style=&quot;color: #abb2bf;&quot;&gt; &lt;/span&gt;&lt;span style=&quot;color: #c678dd;&quot;&gt;void&lt;/span&gt;&lt;span style=&quot;color: #abb2bf;&quot;&gt; &lt;/span&gt;&lt;span style=&quot;color: #61afef;&quot;&gt;Register&lt;/span&gt;&lt;span style=&quot;color: #abb2bf;&quot;&gt;(::&lt;/span&gt;&lt;span style=&quot;color: #d19a66;&quot;&gt;PROTOBUF_NAMESPACE_ID&lt;/span&gt;&lt;span style=&quot;color: #abb2bf;&quot;&gt;::&lt;/span&gt;&lt;span style=&quot;color: #e5c07b;&quot;&gt;RpcController&lt;/span&gt;&lt;span style=&quot;color: #c678dd;&quot;&gt;*&lt;/span&gt;&lt;span style=&quot;color: #abb2bf;&quot;&gt; &lt;/span&gt;&lt;span style=&quot;color: #e06c75;font-style: italic;&quot;&gt;controller&lt;/span&gt;&lt;span style=&quot;color: #abb2bf;&quot;&gt;,&lt;/span&gt;&lt;/div&gt;&lt;div&gt;&lt;span style=&quot;color: #abb2bf;&quot;&gt;&amp;nbsp; &amp;nbsp; &amp;nbsp; &amp;nbsp; &amp;nbsp; &amp;nbsp; &amp;nbsp; &amp;nbsp; &amp;nbsp; &amp;nbsp; &amp;nbsp; &amp;nbsp;&lt;/span&gt;&lt;span style=&quot;color: #c678dd;&quot;&gt;const&lt;/span&gt;&lt;span style=&quot;color: #abb2bf;&quot;&gt; ::&lt;/span&gt;&lt;span style=&quot;color: #e5c07b;&quot;&gt;fixbug&lt;/span&gt;&lt;span style=&quot;color: #abb2bf;&quot;&gt;::&lt;/span&gt;&lt;span style=&quot;color: #e5c07b;&quot;&gt;RegisterRequest&lt;/span&gt;&lt;span style=&quot;color: #c678dd;&quot;&gt;*&lt;/span&gt;&lt;span style=&quot;color: #abb2bf;&quot;&gt; &lt;/span&gt;&lt;span style=&quot;color: #e06c75;font-style: italic;&quot;&gt;request&lt;/span&gt;&lt;span style=&quot;color: #abb2bf;&quot;&gt;,&lt;/span&gt;&lt;/div&gt;&lt;div&gt;&lt;span style=&quot;color: #abb2bf;&quot;&gt;&amp;nbsp; &amp;nbsp; &amp;nbsp; &amp;nbsp; &amp;nbsp; &amp;nbsp; &amp;nbsp; &amp;nbsp; &amp;nbsp; &amp;nbsp; &amp;nbsp; &amp;nbsp;::&lt;/span&gt;&lt;span style=&quot;color: #e5c07b;&quot;&gt;fixbug&lt;/span&gt;&lt;span style=&quot;color: #abb2bf;&quot;&gt;::&lt;/span&gt;&lt;span style=&quot;color: #e5c07b;&quot;&gt;RegisterResponse&lt;/span&gt;&lt;span style=&quot;color: #c678dd;&quot;&gt;*&lt;/span&gt;&lt;span style=&quot;color: #abb2bf;&quot;&gt; &lt;/span&gt;&lt;span style=&quot;color: #e06c75;font-style: italic;&quot;&gt;response&lt;/span&gt;&lt;span style=&quot;color: #abb2bf;&quot;&gt;,&lt;/span&gt;&lt;/div&gt;&lt;div&gt;&lt;span style=&quot;color: #abb2bf;&quot;&gt;&amp;nbsp; &amp;nbsp; &amp;nbsp; &amp;nbsp; &amp;nbsp; &amp;nbsp; &amp;nbsp; &amp;nbsp; &amp;nbsp; &amp;nbsp; &amp;nbsp; &amp;nbsp;::&lt;/span&gt;&lt;span style=&quot;color: #e5c07b;&quot;&gt;google&lt;/span&gt;&lt;span style=&quot;color: #abb2bf;&quot;&gt;::&lt;/span&gt;&lt;span style=&quot;color: #e5c07b;&quot;&gt;protobuf&lt;/span&gt;&lt;span style=&quot;color: #abb2bf;&quot;&gt;::&lt;/span&gt;&lt;span style=&quot;color: #e5c07b;&quot;&gt;Closure&lt;/span&gt;&lt;span style=&quot;color: #c678dd;&quot;&gt;*&lt;/span&gt;&lt;span style=&quot;color: #abb2bf;&quot;&gt; &lt;/span&gt;&lt;span style=&quot;color: #e06c75;font-style: italic;&quot;&gt;done&lt;/span&gt;&lt;span style=&quot;color: #abb2bf;&quot;&gt;);&lt;/span&gt;&lt;/div&gt;&lt;/div&gt;" style="text;whiteSpace=wrap;html=1;" vertex="1" parent="RKI_oxmCUPOYZ7H7hOv1-96">
          <mxGeometry y="136" width="160" height="110" as="geometry" />
        </mxCell>
        <mxCell id="RKI_oxmCUPOYZ7H7hOv1-98" value="" style="line;strokeWidth=1;fillColor=none;align=left;verticalAlign=middle;spacingTop=-1;spacingLeft=3;spacingRight=3;rotatable=0;labelPosition=right;points=[];portConstraint=eastwest;strokeColor=inherit;" vertex="1" parent="RKI_oxmCUPOYZ7H7hOv1-96">
          <mxGeometry y="246" width="160" height="8" as="geometry" />
        </mxCell>
        <mxCell id="RKI_oxmCUPOYZ7H7hOv1-106" value="&lt;div style=&quot;color: #abb2bf;background-color: #282c34;font-family: Consolas, &#39;Courier New&#39;, monospace;font-weight: normal;font-size: 16px;line-height: 22px;white-space: pre;&quot;&gt;&lt;div&gt;&lt;span style=&quot;color: #c678dd;&quot;&gt;static&lt;/span&gt;&lt;span style=&quot;color: #abb2bf;&quot;&gt; &lt;/span&gt;&lt;span style=&quot;color: #c678dd;&quot;&gt;const&lt;/span&gt;&lt;span style=&quot;color: #abb2bf;&quot;&gt; ::&lt;/span&gt;&lt;span style=&quot;color: #d19a66;&quot;&gt;PROTOBUF_NAMESPACE_ID&lt;/span&gt;&lt;span style=&quot;color: #abb2bf;&quot;&gt;::&lt;/span&gt;&lt;span style=&quot;color: #e5c07b;&quot;&gt;ServiceDescriptor&lt;/span&gt;&lt;span style=&quot;color: #c678dd;&quot;&gt;*&lt;/span&gt;&lt;span style=&quot;color: #abb2bf;&quot;&gt; &lt;/span&gt;&lt;span style=&quot;color: #61afef;&quot;&gt;descriptor&lt;/span&gt;&lt;span style=&quot;color: #abb2bf;&quot;&gt;();&lt;/span&gt;&lt;/div&gt;&lt;/div&gt;" style="text;whiteSpace=wrap;html=1;" vertex="1" parent="RKI_oxmCUPOYZ7H7hOv1-96">
          <mxGeometry y="254" width="160" height="44" as="geometry" />
        </mxCell>
        <mxCell id="RKI_oxmCUPOYZ7H7hOv1-100" value="&lt;span style=&quot;font-weight: 400;&quot;&gt;UserServiceRpc_Stub&lt;/span&gt;" style="swimlane;fontStyle=1;align=center;verticalAlign=top;childLayout=stackLayout;horizontal=1;startSize=34;horizontalStack=0;resizeParent=1;resizeParentMax=0;resizeLast=0;collapsible=1;marginBottom=0;whiteSpace=wrap;html=1;" vertex="1" parent="1">
          <mxGeometry x="803" y="-315" width="160" height="342" as="geometry" />
        </mxCell>
        <mxCell id="RKI_oxmCUPOYZ7H7hOv1-111" value="&lt;div style=&quot;color: #abb2bf;background-color: #282c34;font-family: Consolas, &#39;Courier New&#39;, monospace;font-weight: normal;font-size: 16px;line-height: 22px;white-space: pre;&quot;&gt;&lt;div&gt;&lt;span style=&quot;color: #e5c07b;&quot;&gt;UserServiceRpc_Stub&lt;/span&gt;&lt;span style=&quot;color: #abb2bf;&quot;&gt;(&lt;/span&gt;&lt;span style=&quot;color: #e06c75;&quot;&gt;::PROTOBUF_NAMESPACE_&lt;/span&gt;&lt;span style=&quot;color: #abb2bf;&quot;&gt;ID::&lt;/span&gt;&lt;span style=&quot;color: #e5c07b;&quot;&gt;RpcChannel&lt;/span&gt;&lt;span style=&quot;color: #c678dd;&quot;&gt;*&lt;/span&gt;&lt;span style=&quot;color: #abb2bf;&quot;&gt; &lt;/span&gt;&lt;span style=&quot;color: #e06c75;font-style: italic;&quot;&gt;channel&lt;/span&gt;&lt;span style=&quot;color: #abb2bf;&quot;&gt;);&lt;/span&gt;&lt;/div&gt;&lt;/div&gt;" style="text;whiteSpace=wrap;html=1;" vertex="1" parent="RKI_oxmCUPOYZ7H7hOv1-100">
          <mxGeometry y="34" width="160" height="44" as="geometry" />
        </mxCell>
        <mxCell id="RKI_oxmCUPOYZ7H7hOv1-108" value="&lt;div style=&quot;color: #abb2bf;background-color: #282c34;font-family: Consolas, &#39;Courier New&#39;, monospace;font-weight: normal;font-size: 16px;line-height: 22px;white-space: pre;&quot;&gt;&lt;div&gt;&lt;span style=&quot;color: #c678dd;&quot;&gt;void&lt;/span&gt;&lt;span style=&quot;color: #abb2bf;&quot;&gt; &lt;/span&gt;&lt;span style=&quot;color: #61afef;&quot;&gt;Login&lt;/span&gt;&lt;span style=&quot;color: #abb2bf;&quot;&gt;(::PROTOBUF_NAMESPACE_ID::&lt;/span&gt;&lt;span style=&quot;color: #e5c07b;&quot;&gt;RpcController&lt;/span&gt;&lt;span style=&quot;color: #c678dd;&quot;&gt;*&lt;/span&gt;&lt;span style=&quot;color: #abb2bf;&quot;&gt; &lt;/span&gt;&lt;span style=&quot;color: #e06c75;font-style: italic;&quot;&gt;controller&lt;/span&gt;&lt;span style=&quot;color: #abb2bf;&quot;&gt;,&lt;/span&gt;&lt;/div&gt;&lt;div&gt;&lt;span style=&quot;color: #abb2bf;&quot;&gt;&amp;nbsp; &amp;nbsp; &amp;nbsp; &amp;nbsp; &amp;nbsp; &amp;nbsp; &amp;nbsp; &amp;nbsp; &amp;nbsp; &amp;nbsp; &amp;nbsp; &amp;nbsp;&lt;/span&gt;&lt;span style=&quot;color: #c678dd;&quot;&gt;const&lt;/span&gt;&lt;span style=&quot;color: #abb2bf;&quot;&gt; ::fixbug::&lt;/span&gt;&lt;span style=&quot;color: #e5c07b;&quot;&gt;LoginRequest&lt;/span&gt;&lt;span style=&quot;color: #c678dd;&quot;&gt;*&lt;/span&gt;&lt;span style=&quot;color: #abb2bf;&quot;&gt; &lt;/span&gt;&lt;span style=&quot;color: #e06c75;font-style: italic;&quot;&gt;request&lt;/span&gt;&lt;span style=&quot;color: #abb2bf;&quot;&gt;,&lt;/span&gt;&lt;/div&gt;&lt;div&gt;&lt;span style=&quot;color: #abb2bf;&quot;&gt;&amp;nbsp; &amp;nbsp; &amp;nbsp; &amp;nbsp; &amp;nbsp; &amp;nbsp; &amp;nbsp; &amp;nbsp; &amp;nbsp; &amp;nbsp; &amp;nbsp; &amp;nbsp;::fixbug::&lt;/span&gt;&lt;span style=&quot;color: #e5c07b;&quot;&gt;LoginResponse&lt;/span&gt;&lt;span style=&quot;color: #c678dd;&quot;&gt;*&lt;/span&gt;&lt;span style=&quot;color: #abb2bf;&quot;&gt; &lt;/span&gt;&lt;span style=&quot;color: #e06c75;font-style: italic;&quot;&gt;response&lt;/span&gt;&lt;span style=&quot;color: #abb2bf;&quot;&gt;,&lt;/span&gt;&lt;/div&gt;&lt;div&gt;&lt;span style=&quot;color: #abb2bf;&quot;&gt;&amp;nbsp; &amp;nbsp; &amp;nbsp; &amp;nbsp; &amp;nbsp; &amp;nbsp; &amp;nbsp; &amp;nbsp; &amp;nbsp; &amp;nbsp; &amp;nbsp; &amp;nbsp;::google::protobuf::&lt;/span&gt;&lt;span style=&quot;color: #e5c07b;&quot;&gt;Closure&lt;/span&gt;&lt;span style=&quot;color: #c678dd;&quot;&gt;*&lt;/span&gt;&lt;span style=&quot;color: #abb2bf;&quot;&gt; &lt;/span&gt;&lt;span style=&quot;color: #e06c75;font-style: italic;&quot;&gt;done&lt;/span&gt;&lt;span style=&quot;color: #abb2bf;&quot;&gt;);&lt;/span&gt;&lt;/div&gt;&lt;/div&gt;" style="text;whiteSpace=wrap;html=1;" vertex="1" parent="RKI_oxmCUPOYZ7H7hOv1-100">
          <mxGeometry y="78" width="160" height="110" as="geometry" />
        </mxCell>
        <mxCell id="RKI_oxmCUPOYZ7H7hOv1-109" value="&lt;div style=&quot;color: #abb2bf;background-color: #282c34;font-family: Consolas, &#39;Courier New&#39;, monospace;font-weight: normal;font-size: 16px;line-height: 22px;white-space: pre;&quot;&gt;&lt;div&gt;&lt;span style=&quot;color: #c678dd;&quot;&gt;void&lt;/span&gt;&lt;span style=&quot;color: #abb2bf;&quot;&gt; &lt;/span&gt;&lt;span style=&quot;color: #61afef;&quot;&gt;Register&lt;/span&gt;&lt;span style=&quot;color: #abb2bf;&quot;&gt;(::&lt;/span&gt;&lt;span style=&quot;color: #e06c75;&quot;&gt;PROTOBUF_NAMESPACE_ID&lt;/span&gt;&lt;span style=&quot;color: #abb2bf;&quot;&gt;::&lt;/span&gt;&lt;span style=&quot;color: #e5c07b;&quot;&gt;RpcController&lt;/span&gt;&lt;span style=&quot;color: #c678dd;&quot;&gt;*&lt;/span&gt;&lt;span style=&quot;color: #abb2bf;&quot;&gt; &lt;/span&gt;&lt;span style=&quot;color: #e06c75;font-style: italic;&quot;&gt;controller&lt;/span&gt;&lt;span style=&quot;color: #abb2bf;&quot;&gt;,&lt;/span&gt;&lt;/div&gt;&lt;div&gt;&lt;span style=&quot;color: #abb2bf;&quot;&gt;&amp;nbsp; &amp;nbsp; &amp;nbsp; &amp;nbsp; &amp;nbsp; &amp;nbsp; &amp;nbsp; &amp;nbsp; &amp;nbsp; &amp;nbsp; &amp;nbsp; &amp;nbsp;&lt;/span&gt;&lt;span style=&quot;color: #c678dd;&quot;&gt;const&lt;/span&gt;&lt;span style=&quot;color: #abb2bf;&quot;&gt; ::fixbug::&lt;/span&gt;&lt;span style=&quot;color: #e5c07b;&quot;&gt;RegisterRequest&lt;/span&gt;&lt;span style=&quot;color: #c678dd;&quot;&gt;*&lt;/span&gt;&lt;span style=&quot;color: #abb2bf;&quot;&gt; &lt;/span&gt;&lt;span style=&quot;color: #e06c75;font-style: italic;&quot;&gt;request&lt;/span&gt;&lt;span style=&quot;color: #abb2bf;&quot;&gt;,&lt;/span&gt;&lt;/div&gt;&lt;div&gt;&lt;span style=&quot;color: #abb2bf;&quot;&gt;&amp;nbsp; &amp;nbsp; &amp;nbsp; &amp;nbsp; &amp;nbsp; &amp;nbsp; &amp;nbsp; &amp;nbsp; &amp;nbsp; &amp;nbsp; &amp;nbsp; &amp;nbsp;::fixbug::&lt;/span&gt;&lt;span style=&quot;color: #e5c07b;&quot;&gt;RegisterResponse&lt;/span&gt;&lt;span style=&quot;color: #c678dd;&quot;&gt;*&lt;/span&gt;&lt;span style=&quot;color: #abb2bf;&quot;&gt; &lt;/span&gt;&lt;span style=&quot;color: #e06c75;font-style: italic;&quot;&gt;response&lt;/span&gt;&lt;span style=&quot;color: #abb2bf;&quot;&gt;,&lt;/span&gt;&lt;/div&gt;&lt;div&gt;&lt;span style=&quot;color: #abb2bf;&quot;&gt;&amp;nbsp; &amp;nbsp; &amp;nbsp; &amp;nbsp; &amp;nbsp; &amp;nbsp; &amp;nbsp; &amp;nbsp; &amp;nbsp; &amp;nbsp; &amp;nbsp; &amp;nbsp;::google::protobuf::&lt;/span&gt;&lt;span style=&quot;color: #e5c07b;&quot;&gt;Closure&lt;/span&gt;&lt;span style=&quot;color: #c678dd;&quot;&gt;*&lt;/span&gt;&lt;span style=&quot;color: #abb2bf;&quot;&gt; &lt;/span&gt;&lt;span style=&quot;color: #e06c75;font-style: italic;&quot;&gt;done&lt;/span&gt;&lt;span style=&quot;color: #abb2bf;&quot;&gt;);&lt;/span&gt;&lt;/div&gt;&lt;/div&gt;" style="text;whiteSpace=wrap;html=1;" vertex="1" parent="RKI_oxmCUPOYZ7H7hOv1-100">
          <mxGeometry y="188" width="160" height="110" as="geometry" />
        </mxCell>
        <mxCell id="RKI_oxmCUPOYZ7H7hOv1-110" value="&lt;div style=&quot;color: #abb2bf;background-color: #282c34;font-family: Consolas, &#39;Courier New&#39;, monospace;font-weight: normal;font-size: 16px;line-height: 22px;white-space: pre;&quot;&gt;&lt;div&gt;&lt;span style=&quot;color: #e06c75;&quot;&gt;::PROTOBUF_NAMESPACE_&lt;/span&gt;&lt;span style=&quot;color: #abb2bf;&quot;&gt;ID::RpcChannel&lt;/span&gt;&lt;span style=&quot;color: #56b6c2;&quot;&gt;*&lt;/span&gt;&lt;span style=&quot;color: #abb2bf;&quot;&gt; channel_;&lt;/span&gt;&lt;/div&gt;&lt;/div&gt;" style="text;whiteSpace=wrap;html=1;" vertex="1" parent="RKI_oxmCUPOYZ7H7hOv1-100">
          <mxGeometry y="298" width="160" height="44" as="geometry" />
        </mxCell>
        <mxCell id="RKI_oxmCUPOYZ7H7hOv1-121" value="RpcChannel" style="swimlane;fontStyle=1;align=center;verticalAlign=top;childLayout=stackLayout;horizontal=1;startSize=26;horizontalStack=0;resizeParent=1;resizeParentMax=0;resizeLast=0;collapsible=1;marginBottom=0;whiteSpace=wrap;html=1;" vertex="1" parent="1">
          <mxGeometry x="1410" y="-284" width="160" height="52" as="geometry" />
        </mxCell>
        <mxCell id="RKI_oxmCUPOYZ7H7hOv1-122" value="CallMethod()" style="text;strokeColor=none;fillColor=none;align=left;verticalAlign=top;spacingLeft=4;spacingRight=4;overflow=hidden;rotatable=0;points=[[0,0.5],[1,0.5]];portConstraint=eastwest;whiteSpace=wrap;html=1;" vertex="1" parent="RKI_oxmCUPOYZ7H7hOv1-121">
          <mxGeometry y="26" width="160" height="26" as="geometry" />
        </mxCell>
        <mxCell id="RKI_oxmCUPOYZ7H7hOv1-127" value="class MprpcApplication" style="swimlane;fontStyle=1;align=center;verticalAlign=top;childLayout=stackLayout;horizontal=1;startSize=26;horizontalStack=0;resizeParent=1;resizeParentMax=0;resizeLast=0;collapsible=1;marginBottom=0;whiteSpace=wrap;html=1;" vertex="1" parent="1">
          <mxGeometry x="1004" y="643" width="160" height="86" as="geometry" />
        </mxCell>
        <mxCell id="RKI_oxmCUPOYZ7H7hOv1-128" value="负责初始化" style="text;strokeColor=none;fillColor=none;align=left;verticalAlign=top;spacingLeft=4;spacingRight=4;overflow=hidden;rotatable=0;points=[[0,0.5],[1,0.5]];portConstraint=eastwest;whiteSpace=wrap;html=1;" vertex="1" parent="RKI_oxmCUPOYZ7H7hOv1-127">
          <mxGeometry y="26" width="160" height="26" as="geometry" />
        </mxCell>
        <mxCell id="RKI_oxmCUPOYZ7H7hOv1-129" value="" style="line;strokeWidth=1;fillColor=none;align=left;verticalAlign=middle;spacingTop=-1;spacingLeft=3;spacingRight=3;rotatable=0;labelPosition=right;points=[];portConstraint=eastwest;strokeColor=inherit;" vertex="1" parent="RKI_oxmCUPOYZ7H7hOv1-127">
          <mxGeometry y="52" width="160" height="8" as="geometry" />
        </mxCell>
        <mxCell id="RKI_oxmCUPOYZ7H7hOv1-130" value="+ method(type): type" style="text;strokeColor=none;fillColor=none;align=left;verticalAlign=top;spacingLeft=4;spacingRight=4;overflow=hidden;rotatable=0;points=[[0,0.5],[1,0.5]];portConstraint=eastwest;whiteSpace=wrap;html=1;" vertex="1" parent="RKI_oxmCUPOYZ7H7hOv1-127">
          <mxGeometry y="60" width="160" height="26" as="geometry" />
        </mxCell>
        <mxCell id="RKI_oxmCUPOYZ7H7hOv1-189" style="edgeStyle=orthogonalEdgeStyle;rounded=0;orthogonalLoop=1;jettySize=auto;html=1;exitX=1;exitY=0.75;exitDx=0;exitDy=0;entryX=0;entryY=0.5;entryDx=0;entryDy=0;" edge="1" parent="1" source="RKI_oxmCUPOYZ7H7hOv1-131" target="RKI_oxmCUPOYZ7H7hOv1-186">
          <mxGeometry relative="1" as="geometry" />
        </mxCell>
        <mxCell id="RKI_oxmCUPOYZ7H7hOv1-131" value="class RpcProvider" style="swimlane;fontStyle=1;align=center;verticalAlign=top;childLayout=stackLayout;horizontal=1;startSize=26;horizontalStack=0;resizeParent=1;resizeParentMax=0;resizeLast=0;collapsible=1;marginBottom=0;whiteSpace=wrap;html=1;" vertex="1" parent="1">
          <mxGeometry x="1250" y="951" width="383" height="286" as="geometry" />
        </mxCell>
        <mxCell id="RKI_oxmCUPOYZ7H7hOv1-132" value="void NotifyServie()" style="text;strokeColor=none;fillColor=none;align=center;verticalAlign=top;spacingLeft=4;spacingRight=4;overflow=hidden;rotatable=0;points=[[0,0.5],[1,0.5]];portConstraint=eastwest;whiteSpace=wrap;html=1;" vertex="1" parent="RKI_oxmCUPOYZ7H7hOv1-131">
          <mxGeometry y="26" width="383" height="26" as="geometry" />
        </mxCell>
        <mxCell id="RKI_oxmCUPOYZ7H7hOv1-133" value="" style="line;strokeWidth=1;fillColor=none;align=left;verticalAlign=middle;spacingTop=-1;spacingLeft=3;spacingRight=3;rotatable=0;labelPosition=right;points=[];portConstraint=eastwest;strokeColor=inherit;" vertex="1" parent="RKI_oxmCUPOYZ7H7hOv1-131">
          <mxGeometry y="52" width="383" height="8" as="geometry" />
        </mxCell>
        <mxCell id="RKI_oxmCUPOYZ7H7hOv1-134" value="void Run()网络功能，利用muduo库实现" style="text;strokeColor=none;fillColor=none;align=center;verticalAlign=top;spacingLeft=4;spacingRight=4;overflow=hidden;rotatable=0;points=[[0,0.5],[1,0.5]];portConstraint=eastwest;whiteSpace=wrap;html=1;" vertex="1" parent="RKI_oxmCUPOYZ7H7hOv1-131">
          <mxGeometry y="60" width="383" height="26" as="geometry" />
        </mxCell>
        <mxCell id="RKI_oxmCUPOYZ7H7hOv1-176" value="&lt;div&gt;OnConnection()&lt;/div&gt;" style="html=1;whiteSpace=wrap;" vertex="1" parent="RKI_oxmCUPOYZ7H7hOv1-131">
          <mxGeometry y="86" width="383" height="50" as="geometry" />
        </mxCell>
        <mxCell id="RKI_oxmCUPOYZ7H7hOv1-177" value="&lt;div&gt;OnMessage()&lt;/div&gt;" style="html=1;whiteSpace=wrap;" vertex="1" parent="RKI_oxmCUPOYZ7H7hOv1-131">
          <mxGeometry y="136" width="383" height="50" as="geometry" />
        </mxCell>
        <mxCell id="RKI_oxmCUPOYZ7H7hOv1-184" value="SendRpcResponse()" style="html=1;whiteSpace=wrap;" vertex="1" parent="RKI_oxmCUPOYZ7H7hOv1-131">
          <mxGeometry y="186" width="383" height="50" as="geometry" />
        </mxCell>
        <mxCell id="RKI_oxmCUPOYZ7H7hOv1-155" value="&lt;div&gt;std::unordered_map&amp;lt;std::string,ServiceInfo&amp;gt; m_serviceMap;&lt;/div&gt;&lt;div&gt;&lt;br&gt;&lt;/div&gt;" style="html=1;whiteSpace=wrap;" vertex="1" parent="RKI_oxmCUPOYZ7H7hOv1-131">
          <mxGeometry y="236" width="383" height="50" as="geometry" />
        </mxCell>
        <mxCell id="RKI_oxmCUPOYZ7H7hOv1-139" value="callee" style="swimlane;fontStyle=1;align=center;verticalAlign=top;childLayout=stackLayout;horizontal=1;startSize=26;horizontalStack=0;resizeParent=1;resizeParentMax=0;resizeLast=0;collapsible=1;marginBottom=0;whiteSpace=wrap;html=1;" vertex="1" parent="1">
          <mxGeometry x="775" y="838" width="267" height="236" as="geometry" />
        </mxCell>
        <mxCell id="RKI_oxmCUPOYZ7H7hOv1-173" style="edgeStyle=orthogonalEdgeStyle;rounded=0;orthogonalLoop=1;jettySize=auto;html=1;" edge="1" parent="RKI_oxmCUPOYZ7H7hOv1-139" source="RKI_oxmCUPOYZ7H7hOv1-145">
          <mxGeometry relative="1" as="geometry">
            <mxPoint x="473.4174451326071" y="51" as="targetPoint" />
          </mxGeometry>
        </mxCell>
        <mxCell id="RKI_oxmCUPOYZ7H7hOv1-145" value="class UserService(){}" style="html=1;whiteSpace=wrap;" vertex="1" parent="RKI_oxmCUPOYZ7H7hOv1-139">
          <mxGeometry y="26" width="267" height="50" as="geometry" />
        </mxCell>
        <mxCell id="RKI_oxmCUPOYZ7H7hOv1-140" value="MprpcApplication" style="text;strokeColor=none;fillColor=none;align=left;verticalAlign=top;spacingLeft=4;spacingRight=4;overflow=hidden;rotatable=0;points=[[0,0.5],[1,0.5]];portConstraint=eastwest;whiteSpace=wrap;html=1;" vertex="1" parent="RKI_oxmCUPOYZ7H7hOv1-139">
          <mxGeometry y="76" width="267" height="26" as="geometry" />
        </mxCell>
        <mxCell id="RKI_oxmCUPOYZ7H7hOv1-141" value="" style="line;strokeWidth=1;fillColor=none;align=left;verticalAlign=middle;spacingTop=-1;spacingLeft=3;spacingRight=3;rotatable=0;labelPosition=right;points=[];portConstraint=eastwest;strokeColor=inherit;" vertex="1" parent="RKI_oxmCUPOYZ7H7hOv1-139">
          <mxGeometry y="102" width="267" height="8" as="geometry" />
        </mxCell>
        <mxCell id="RKI_oxmCUPOYZ7H7hOv1-174" style="edgeStyle=orthogonalEdgeStyle;rounded=0;orthogonalLoop=1;jettySize=auto;html=1;" edge="1" parent="RKI_oxmCUPOYZ7H7hOv1-139" source="RKI_oxmCUPOYZ7H7hOv1-142">
          <mxGeometry relative="1" as="geometry">
            <mxPoint x="463.0524787902832" y="123.00000000000045" as="targetPoint" />
          </mxGeometry>
        </mxCell>
        <mxCell id="RKI_oxmCUPOYZ7H7hOv1-142" value="RpcProvider provicer" style="text;strokeColor=none;fillColor=none;align=left;verticalAlign=top;spacingLeft=4;spacingRight=4;overflow=hidden;rotatable=0;points=[[0,0.5],[1,0.5]];portConstraint=eastwest;whiteSpace=wrap;html=1;" vertex="1" parent="RKI_oxmCUPOYZ7H7hOv1-139">
          <mxGeometry y="110" width="267" height="26" as="geometry" />
        </mxCell>
        <mxCell id="RKI_oxmCUPOYZ7H7hOv1-144" value="provider.NotifyService(new UserService())" style="html=1;whiteSpace=wrap;" vertex="1" parent="RKI_oxmCUPOYZ7H7hOv1-139">
          <mxGeometry y="136" width="267" height="50" as="geometry" />
        </mxCell>
        <mxCell id="RKI_oxmCUPOYZ7H7hOv1-172" value="provider.run()" style="html=1;whiteSpace=wrap;" vertex="1" parent="RKI_oxmCUPOYZ7H7hOv1-139">
          <mxGeometry y="186" width="267" height="50" as="geometry" />
        </mxCell>
        <mxCell id="RKI_oxmCUPOYZ7H7hOv1-146" value="caller" style="swimlane;fontStyle=1;align=center;verticalAlign=top;childLayout=stackLayout;horizontal=1;startSize=26;horizontalStack=0;resizeParent=1;resizeParentMax=0;resizeLast=0;collapsible=1;marginBottom=0;whiteSpace=wrap;html=1;" vertex="1" parent="1">
          <mxGeometry x="152" y="844" width="254" height="336" as="geometry" />
        </mxCell>
        <mxCell id="RKI_oxmCUPOYZ7H7hOv1-147" value="int main()" style="text;strokeColor=none;fillColor=none;align=left;verticalAlign=top;spacingLeft=4;spacingRight=4;overflow=hidden;rotatable=0;points=[[0,0.5],[1,0.5]];portConstraint=eastwest;whiteSpace=wrap;html=1;" vertex="1" parent="RKI_oxmCUPOYZ7H7hOv1-146">
          <mxGeometry y="26" width="254" height="26" as="geometry" />
        </mxCell>
        <mxCell id="RKI_oxmCUPOYZ7H7hOv1-148" value="" style="line;strokeWidth=1;fillColor=none;align=left;verticalAlign=middle;spacingTop=-1;spacingLeft=3;spacingRight=3;rotatable=0;labelPosition=right;points=[];portConstraint=eastwest;strokeColor=inherit;" vertex="1" parent="RKI_oxmCUPOYZ7H7hOv1-146">
          <mxGeometry y="52" width="254" height="8" as="geometry" />
        </mxCell>
        <mxCell id="RKI_oxmCUPOYZ7H7hOv1-149" value="MprpcApplication()" style="text;strokeColor=none;fillColor=none;align=left;verticalAlign=top;spacingLeft=4;spacingRight=4;overflow=hidden;rotatable=0;points=[[0,0.5],[1,0.5]];portConstraint=eastwest;whiteSpace=wrap;html=1;" vertex="1" parent="RKI_oxmCUPOYZ7H7hOv1-146">
          <mxGeometry y="60" width="254" height="26" as="geometry" />
        </mxCell>
        <mxCell id="RKI_oxmCUPOYZ7H7hOv1-196" value="stub(new mprpcChannel());" style="html=1;whiteSpace=wrap;" vertex="1" parent="RKI_oxmCUPOYZ7H7hOv1-146">
          <mxGeometry y="86" width="254" height="50" as="geometry" />
        </mxCell>
        <mxCell id="RKI_oxmCUPOYZ7H7hOv1-210" value="LoginRequest request；&lt;div&gt;然后放数据&lt;/div&gt;" style="html=1;whiteSpace=wrap;" vertex="1" parent="RKI_oxmCUPOYZ7H7hOv1-146">
          <mxGeometry y="136" width="254" height="50" as="geometry" />
        </mxCell>
        <mxCell id="RKI_oxmCUPOYZ7H7hOv1-211" value="LoginRespone response；" style="html=1;whiteSpace=wrap;" vertex="1" parent="RKI_oxmCUPOYZ7H7hOv1-146">
          <mxGeometry y="186" width="254" height="50" as="geometry" />
        </mxCell>
        <mxCell id="RKI_oxmCUPOYZ7H7hOv1-197" value="stub.login(nullptr,&amp;amp;request,&amp;amp;response,nullptr)" style="html=1;whiteSpace=wrap;" vertex="1" parent="RKI_oxmCUPOYZ7H7hOv1-146">
          <mxGeometry y="236" width="254" height="50" as="geometry" />
        </mxCell>
        <mxCell id="RKI_oxmCUPOYZ7H7hOv1-215" value="if(response.result().errcode() == 0)" style="html=1;whiteSpace=wrap;" vertex="1" parent="RKI_oxmCUPOYZ7H7hOv1-146">
          <mxGeometry y="286" width="254" height="50" as="geometry" />
        </mxCell>
        <mxCell id="RKI_oxmCUPOYZ7H7hOv1-150" value="mprpcconfig" style="swimlane;fontStyle=1;align=center;verticalAlign=top;childLayout=stackLayout;horizontal=1;startSize=26;horizontalStack=0;resizeParent=1;resizeParentMax=0;resizeLast=0;collapsible=1;marginBottom=0;whiteSpace=wrap;html=1;" vertex="1" parent="1">
          <mxGeometry x="86" y="-88" width="160" height="86" as="geometry" />
        </mxCell>
        <mxCell id="RKI_oxmCUPOYZ7H7hOv1-151" value="获取ip和端口的参数配置" style="text;strokeColor=none;fillColor=none;align=left;verticalAlign=top;spacingLeft=4;spacingRight=4;overflow=hidden;rotatable=0;points=[[0,0.5],[1,0.5]];portConstraint=eastwest;whiteSpace=wrap;html=1;" vertex="1" parent="RKI_oxmCUPOYZ7H7hOv1-150">
          <mxGeometry y="26" width="160" height="26" as="geometry" />
        </mxCell>
        <mxCell id="RKI_oxmCUPOYZ7H7hOv1-152" value="" style="line;strokeWidth=1;fillColor=none;align=left;verticalAlign=middle;spacingTop=-1;spacingLeft=3;spacingRight=3;rotatable=0;labelPosition=right;points=[];portConstraint=eastwest;strokeColor=inherit;" vertex="1" parent="RKI_oxmCUPOYZ7H7hOv1-150">
          <mxGeometry y="52" width="160" height="8" as="geometry" />
        </mxCell>
        <mxCell id="RKI_oxmCUPOYZ7H7hOv1-153" value="+ method(type): type" style="text;strokeColor=none;fillColor=none;align=left;verticalAlign=top;spacingLeft=4;spacingRight=4;overflow=hidden;rotatable=0;points=[[0,0.5],[1,0.5]];portConstraint=eastwest;whiteSpace=wrap;html=1;" vertex="1" parent="RKI_oxmCUPOYZ7H7hOv1-150">
          <mxGeometry y="60" width="160" height="26" as="geometry" />
        </mxCell>
        <mxCell id="RKI_oxmCUPOYZ7H7hOv1-157" value="绑定ip和端口，然后监听,开启EventLoop" style="html=1;whiteSpace=wrap;" vertex="1" parent="1">
          <mxGeometry x="1875" y="999" width="378" height="50" as="geometry" />
        </mxCell>
        <mxCell id="RKI_oxmCUPOYZ7H7hOv1-158" style="edgeStyle=orthogonalEdgeStyle;rounded=0;orthogonalLoop=1;jettySize=auto;html=1;exitX=1;exitY=0.5;exitDx=0;exitDy=0;entryX=0;entryY=0.5;entryDx=0;entryDy=0;" edge="1" parent="1" source="RKI_oxmCUPOYZ7H7hOv1-134" target="RKI_oxmCUPOYZ7H7hOv1-157">
          <mxGeometry relative="1" as="geometry" />
        </mxCell>
        <mxCell id="RKI_oxmCUPOYZ7H7hOv1-165" value="" style="group" vertex="1" connectable="0" parent="1">
          <mxGeometry x="1250" y="696" width="152" height="213" as="geometry" />
        </mxCell>
        <mxCell id="RKI_oxmCUPOYZ7H7hOv1-161" value="" style="group" vertex="1" connectable="0" parent="RKI_oxmCUPOYZ7H7hOv1-165">
          <mxGeometry x="1" y="1" width="151" height="150" as="geometry" />
        </mxCell>
        <mxCell id="RKI_oxmCUPOYZ7H7hOv1-159" value="class UserService(){}" style="html=1;whiteSpace=wrap;" vertex="1" parent="RKI_oxmCUPOYZ7H7hOv1-161">
          <mxGeometry width="151" height="50" as="geometry" />
        </mxCell>
        <mxCell id="RKI_oxmCUPOYZ7H7hOv1-160" value="func()本地方法" style="html=1;whiteSpace=wrap;" vertex="1" parent="RKI_oxmCUPOYZ7H7hOv1-161">
          <mxGeometry y="50" width="151" height="50" as="geometry" />
        </mxCell>
        <mxCell id="RKI_oxmCUPOYZ7H7hOv1-162" value="重写protobuf中的login()" style="html=1;whiteSpace=wrap;" vertex="1" parent="RKI_oxmCUPOYZ7H7hOv1-161">
          <mxGeometry y="100" width="151" height="50" as="geometry" />
        </mxCell>
        <mxCell id="RKI_oxmCUPOYZ7H7hOv1-164" value="1.获取参数&lt;div&gt;2.执行本地方法&lt;/div&gt;&lt;div&gt;3.返回值填给Response&lt;/div&gt;&lt;div&gt;4.回调&lt;/div&gt;" style="html=1;whiteSpace=wrap;" vertex="1" parent="RKI_oxmCUPOYZ7H7hOv1-165">
          <mxGeometry x="1" y="151" width="151" height="63" as="geometry" />
        </mxCell>
        <mxCell id="RKI_oxmCUPOYZ7H7hOv1-170" value="实例化这个对象，就是把我们的本地方法注册到rpc服务上&lt;div&gt;所以NotifySewrvice方法是需要生成一张表，记录了服务对象（UserServiceRpc）和服务方法（Login）&lt;/div&gt;" style="html=1;whiteSpace=wrap;" vertex="1" parent="1">
          <mxGeometry x="955" y="1314" width="310" height="50" as="geometry" />
        </mxCell>
        <mxCell id="RKI_oxmCUPOYZ7H7hOv1-171" style="edgeStyle=orthogonalEdgeStyle;rounded=0;orthogonalLoop=1;jettySize=auto;html=1;entryX=0.51;entryY=0.97;entryDx=0;entryDy=0;entryPerimeter=0;" edge="1" parent="1" source="RKI_oxmCUPOYZ7H7hOv1-140" target="RKI_oxmCUPOYZ7H7hOv1-130">
          <mxGeometry relative="1" as="geometry">
            <mxPoint x="1131.427811332371" y="873.1922063412876" as="targetPoint" />
          </mxGeometry>
        </mxCell>
        <mxCell id="RKI_oxmCUPOYZ7H7hOv1-179" value="负责接收到的数据反序列化和序列化" style="html=1;whiteSpace=wrap;" vertex="1" parent="1">
          <mxGeometry x="1880" y="1087" width="194" height="50" as="geometry" />
        </mxCell>
        <mxCell id="RKI_oxmCUPOYZ7H7hOv1-178" style="edgeStyle=orthogonalEdgeStyle;rounded=0;orthogonalLoop=1;jettySize=auto;html=1;entryX=0;entryY=0.5;entryDx=0;entryDy=0;" edge="1" parent="1" source="RKI_oxmCUPOYZ7H7hOv1-177" target="RKI_oxmCUPOYZ7H7hOv1-179">
          <mxGeometry relative="1" as="geometry">
            <mxPoint x="1790" y="1112" as="targetPoint" />
          </mxGeometry>
        </mxCell>
        <mxCell id="RKI_oxmCUPOYZ7H7hOv1-180" value="rpchearder.proto" style="swimlane;fontStyle=1;align=center;verticalAlign=top;childLayout=stackLayout;horizontal=1;startSize=26;horizontalStack=0;resizeParent=1;resizeParentMax=0;resizeLast=0;collapsible=1;marginBottom=0;whiteSpace=wrap;html=1;" vertex="1" parent="1">
          <mxGeometry x="1577" y="1306" width="160" height="139" as="geometry" />
        </mxCell>
        <mxCell id="RKI_oxmCUPOYZ7H7hOv1-181" value="&lt;div&gt;message RpcHeader&lt;/div&gt;&lt;div&gt;{&lt;/div&gt;&lt;div&gt;&amp;nbsp; &amp;nbsp; bytes service_name = 1;&lt;/div&gt;&lt;div&gt;&amp;nbsp; &amp;nbsp; bytes method_name = 2;&lt;/div&gt;&lt;div&gt;&amp;nbsp; &amp;nbsp; uint32 args_size = 3;&lt;/div&gt;&lt;div&gt;}&lt;/div&gt;&lt;div&gt;&lt;br&gt;&lt;/div&gt;" style="text;strokeColor=none;fillColor=none;align=left;verticalAlign=top;spacingLeft=4;spacingRight=4;overflow=hidden;rotatable=0;points=[[0,0.5],[1,0.5]];portConstraint=eastwest;whiteSpace=wrap;html=1;" vertex="1" parent="RKI_oxmCUPOYZ7H7hOv1-180">
          <mxGeometry y="26" width="160" height="113" as="geometry" />
        </mxCell>
        <mxCell id="RKI_oxmCUPOYZ7H7hOv1-186" value="负责将处理得到的数据序列化" style="html=1;whiteSpace=wrap;" vertex="1" parent="1">
          <mxGeometry x="1880" y="1141" width="194" height="50" as="geometry" />
        </mxCell>
        <mxCell id="RKI_oxmCUPOYZ7H7hOv1-190" value="mprpcChannel" style="swimlane;fontStyle=1;align=center;verticalAlign=top;childLayout=stackLayout;horizontal=1;startSize=26;horizontalStack=0;resizeParent=1;resizeParentMax=0;resizeLast=0;collapsible=1;marginBottom=0;whiteSpace=wrap;html=1;" vertex="1" parent="1">
          <mxGeometry x="-178" y="824" width="160" height="136" as="geometry" />
        </mxCell>
        <mxCell id="RKI_oxmCUPOYZ7H7hOv1-191" value="void CallMethod()" style="text;strokeColor=none;fillColor=none;align=left;verticalAlign=top;spacingLeft=4;spacingRight=4;overflow=hidden;rotatable=0;points=[[0,0.5],[1,0.5]];portConstraint=eastwest;whiteSpace=wrap;html=1;" vertex="1" parent="RKI_oxmCUPOYZ7H7hOv1-190">
          <mxGeometry y="26" width="160" height="26" as="geometry" />
        </mxCell>
        <mxCell id="RKI_oxmCUPOYZ7H7hOv1-192" value="" style="line;strokeWidth=1;fillColor=none;align=left;verticalAlign=middle;spacingTop=-1;spacingLeft=3;spacingRight=3;rotatable=0;labelPosition=right;points=[];portConstraint=eastwest;strokeColor=inherit;" vertex="1" parent="RKI_oxmCUPOYZ7H7hOv1-190">
          <mxGeometry y="52" width="160" height="8" as="geometry" />
        </mxCell>
        <mxCell id="RKI_oxmCUPOYZ7H7hOv1-193" value="+ method(type): type" style="text;strokeColor=none;fillColor=none;align=left;verticalAlign=top;spacingLeft=4;spacingRight=4;overflow=hidden;rotatable=0;points=[[0,0.5],[1,0.5]];portConstraint=eastwest;whiteSpace=wrap;html=1;" vertex="1" parent="RKI_oxmCUPOYZ7H7hOv1-190">
          <mxGeometry y="60" width="160" height="26" as="geometry" />
        </mxCell>
        <mxCell id="RKI_oxmCUPOYZ7H7hOv1-194" value="Object" style="html=1;whiteSpace=wrap;" vertex="1" parent="RKI_oxmCUPOYZ7H7hOv1-190">
          <mxGeometry y="86" width="160" height="50" as="geometry" />
        </mxCell>
        <mxCell id="RKI_oxmCUPOYZ7H7hOv1-205" style="edgeStyle=orthogonalEdgeStyle;rounded=0;orthogonalLoop=1;jettySize=auto;html=1;entryX=0.5;entryY=0;entryDx=0;entryDy=0;" edge="1" parent="1" source="RKI_oxmCUPOYZ7H7hOv1-196" target="RKI_oxmCUPOYZ7H7hOv1-190">
          <mxGeometry relative="1" as="geometry" />
        </mxCell>
        <mxCell id="RKI_oxmCUPOYZ7H7hOv1-206" value="Login()里面的方法，底层调用的都是RpcChannel里面的CallMethod()" style="html=1;whiteSpace=wrap;" vertex="1" parent="1">
          <mxGeometry x="-338" y="1077" width="383" height="50" as="geometry" />
        </mxCell>
        <mxCell id="RKI_oxmCUPOYZ7H7hOv1-208" style="edgeStyle=orthogonalEdgeStyle;rounded=0;orthogonalLoop=1;jettySize=auto;html=1;exitX=0;exitY=0.5;exitDx=0;exitDy=0;entryX=1;entryY=0.573;entryDx=0;entryDy=0;entryPerimeter=0;" edge="1" parent="1" source="RKI_oxmCUPOYZ7H7hOv1-197" target="RKI_oxmCUPOYZ7H7hOv1-206">
          <mxGeometry relative="1" as="geometry" />
        </mxCell>
        <mxCell id="RKI_oxmCUPOYZ7H7hOv1-209" value="所有通过stub代理对象调用的rpc方法，都走到这里了，统一做rpc方法调用的数据数据序列化和网络发送" style="text;whiteSpace=wrap;" vertex="1" parent="1">
          <mxGeometry x="-756" y="847" width="570" height="51" as="geometry" />
        </mxCell>
        <mxCell id="RKI_oxmCUPOYZ7H7hOv1-216" value="调用成功" style="html=1;whiteSpace=wrap;" vertex="1" parent="1">
          <mxGeometry x="42" y="1130" width="110" height="50" as="geometry" />
        </mxCell>
        <mxCell id="RKI_oxmCUPOYZ7H7hOv1-217" style="edgeStyle=orthogonalEdgeStyle;rounded=0;orthogonalLoop=1;jettySize=auto;html=1;" edge="1" parent="1" source="RKI_oxmCUPOYZ7H7hOv1-144" target="RKI_oxmCUPOYZ7H7hOv1-170">
          <mxGeometry relative="1" as="geometry">
            <mxPoint x="1111.5752113743833" y="1314.7636413574219" as="targetPoint" />
            <Array as="points">
              <mxPoint x="1110" y="999" />
            </Array>
          </mxGeometry>
        </mxCell>
      </root>
    </mxGraphModel>
  </diagram>
</mxfile>
